<svg xmlns="http://www.w3.org/2000/svg" xmlns:xlink="http://www.w3.org/1999/xlink" width="500" zoomAndPan="magnify" viewBox="0 0 375 374.999991" height="500" preserveAspectRatio="xMidYMid meet" version="1.0"><defs><clipPath id="5af62ff661"><path d="M 17 63.5 L 361.703125 63.5 L 361.703125 311.75 L 17 311.75 Z M 17 63.5 " clip-rule="nonzero"/></clipPath><clipPath id="b94a38e247"><path d="M 18 237 L 257 237 L 257 311.75 L 18 311.75 Z M 18 237 " clip-rule="nonzero"/></clipPath></defs><g clip-path="url(#5af62ff661)"><path fill="#1a1a1a" d="M 256.15625 64.210938 C 240.257812 80.125 225.699219 94.984375 210.71875 109.410156 C 208.503906 111.539062 204.3125 112.476562 201.015625 112.5 C 165.191406 112.714844 129.359375 112.445312 93.535156 112.714844 C 72.945312 112.867188 60.539062 132.597656 69.898438 149.742188 C 74.191406 157.597656 80.878906 162.730469 89.878906 162.816406 C 123.203125 163.136719 156.535156 163.105469 189.851562 162.832031 C 192.660156 162.808594 195.976562 160.53125 198.140625 158.378906 C 227.917969 128.796875 257.417969 98.929688 287.347656 69.5 C 290.460938 66.441406 295.8125 64.273438 300.195312 64.144531 C 319.875 63.578125 339.589844 63.898438 359.300781 63.898438 C 318.597656 104.4375 278.050781 144.808594 237.558594 185.132812 C 280.113281 227.421875 320.808594 267.871094 361.511719 308.316406 C 360.96875 309.335938 360.425781 310.347656 359.890625 311.367188 C 354.285156 311.367188 348.6875 311.367188 343.082031 311.367188 C 328.921875 311.367188 314.746094 311.089844 300.597656 311.503906 C 294.800781 311.671875 290.804688 309.773438 286.789062 305.710938 C 257.679688 276.242188 228.476562 246.875 198.945312 217.828125 C 195.824219 214.765625 190.441406 212.527344 186.074219 212.464844 C 154.699219 212.003906 123.304688 212.757812 91.929688 212.042969 C 62.726562 211.386719 40.03125 198.265625 26.488281 171.925781 C 13.15625 145.980469 15.027344 120.136719 31.15625 95.949219 C 43.75 77.078125 62.0625 65.03125 84.566406 64.585938 C 141.167969 63.460938 197.8125 64.210938 256.15625 64.210938 Z M 256.15625 64.210938 " fill-opacity="1" fill-rule="nonzero"/></g><g clip-path="url(#b94a38e247)"><path fill="#1a1a1a" d="M 18.546875 237.804688 C 32.308594 244.277344 45.523438 252.015625 59.746094 256.714844 C 71.652344 260.652344 84.703125 262.460938 97.296875 262.710938 C 131.714844 263.394531 166.15625 262.582031 200.582031 262.867188 C 204.71875 262.898438 209.75 265.050781 212.792969 267.898438 C 227.296875 281.492188 241.253906 295.667969 256.722656 310.929688 C 252.363281 311.167969 250.238281 311.375 248.113281 311.375 C 195.910156 311.382812 143.707031 311.589844 91.5 311.296875 C 52.191406 311.066406 20.226562 280.640625 18.300781 242.292969 C 18.214844 240.46875 18.492188 238.632812 18.546875 237.804688 Z M 18.546875 237.804688 " fill-opacity="1" fill-rule="nonzero"/></g></svg>